M48
; DRILL file {KiCad (6.0.0)} date Thu Feb  2 14:05:45 2023
; FORMAT={-:-/ absolute / metric / decimal}
; #@! TF.CreationDate,2023-02-02T14:05:45+00:00
; #@! TF.GenerationSoftware,Kicad,Pcbnew,(6.0.0)
; #@! TF.FileFunction,Plated,1,2,PTH
FMAT,2
METRIC
; #@! TA.AperFunction,Plated,PTH,ViaDrill
T1C0.400
; #@! TA.AperFunction,Plated,PTH,ComponentDrill
T2C0.500
; #@! TA.AperFunction,Plated,PTH,ComponentDrill
T3C0.750
; #@! TA.AperFunction,Plated,PTH,ComponentDrill
T4C0.900
; #@! TA.AperFunction,Plated,PTH,ComponentDrill
T5C0.998
; #@! TA.AperFunction,Plated,PTH,ComponentDrill
T6C1.000
; #@! TA.AperFunction,Plated,PTH,ComponentDrill
T7C1.100
; #@! TA.AperFunction,Plated,PTH,ComponentDrill
T8C1.190
; #@! TA.AperFunction,Plated,PTH,ComponentDrill
T9C1.320
; #@! TA.AperFunction,Plated,PTH,ComponentDrill
T10C1.400
; #@! TA.AperFunction,Plated,PTH,ComponentDrill
T11C1.499
; #@! TA.AperFunction,Plated,PTH,ComponentDrill
T12C2.398
; #@! TA.AperFunction,Plated,PTH,ComponentDrill
T13C2.400
; #@! TA.AperFunction,Plated,PTH,ComponentDrill
T14C3.200
%
G90
G05
T1
X128.905Y-50.8
X132.715Y-63.5
X135.89Y-72.39
X142.24Y-64.77
X143.51Y-56.515
X146.05Y-54.61
X151.13Y-57.785
X154.94Y-46.355
X156.21Y-56.515
X156.845Y-62.23
X161.29Y-55.245
X161.925Y-58.42
X168.275Y-65.405
X170.815Y-61.595
X172.085Y-62.23
X177.165Y-59.055
X184.15Y-84.455
T2
X114.44Y-86.36
X115.143Y-84.663
X115.143Y-88.057
X116.84Y-83.96
X116.84Y-88.76
X118.537Y-84.663
X118.537Y-88.057
X119.24Y-86.36
X120.79Y-55.88
X121.493Y-54.183
X121.493Y-57.577
X123.19Y-53.48
X123.19Y-58.28
X124.887Y-54.183
X124.887Y-57.577
X125.59Y-55.88
X212.23Y-55.88
X212.23Y-86.36
X212.933Y-54.183
X212.933Y-57.577
X212.933Y-84.663
X212.933Y-88.057
X214.63Y-53.48
X214.63Y-58.28
X214.63Y-83.96
X214.63Y-88.76
X216.327Y-54.183
X216.327Y-57.577
X216.327Y-84.663
X216.327Y-88.057
X217.03Y-55.88
X217.03Y-86.36
T3
X147.32Y-62.23
X148.59Y-63.5
X149.86Y-62.23
X158.75Y-62.357
X160.02Y-61.087
X160.02Y-63.627
X180.34Y-86.082
X181.61Y-87.352
X182.88Y-86.082
T4
X129.54Y-40.64
X132.08Y-40.64
T5
X141.605Y-67.31
X141.605Y-69.85
X141.605Y-72.39
X141.605Y-74.93
X149.225Y-67.31
X149.225Y-69.85
X149.225Y-72.39
X149.225Y-74.93
T6
X172.085Y-84.455
X172.085Y-86.995
X175.895Y-84.455
X175.895Y-86.995
T7
X128.27Y-66.675
X138.43Y-66.675
T8
X115.57Y-69.85
X115.57Y-72.39
X165.1Y-86.36
X167.64Y-86.36
T9
X120.015Y-68.66
X120.015Y-73.66
X124.46Y-83.82
X129.46Y-83.82
X137.16Y-83.82
X142.16Y-83.82
T10
X114.935Y-44.45
X114.935Y-50.8
X114.935Y-57.15
X131.165Y-44.45
X131.165Y-50.8
X131.165Y-57.15
T11
X147.32Y-42.545
X152.4Y-42.545
X157.48Y-42.545
X166.37Y-42.545
X171.45Y-42.545
X176.53Y-42.545
X185.42Y-42.545
X190.5Y-42.545
X195.58Y-42.545
X204.47Y-42.545
X209.55Y-42.545
X214.63Y-42.545
T12
X138.43Y-53.34
X138.43Y-57.15
X138.43Y-60.96
T13
X166.37Y-60.325
X166.37Y-73.025
T14
X116.84Y-86.36
X123.19Y-55.88
X214.63Y-55.88
X214.63Y-86.36
T6
G00X136.39Y-40.64
M15
G01X135.39Y-40.64
M16
G05
G00X141.47Y-40.64
M15
G01X140.47Y-40.64
M16
G05
T0
M30
