%TF.GenerationSoftware,KiCad,Pcbnew,(6.0.0)*%
%TF.CreationDate,2023-02-02T14:21:30+00:00*%
%TF.ProjectId,GemToasterAmp,47656d54-6f61-4737-9465-72416d702e6b,rev?*%
%TF.SameCoordinates,Original*%
%TF.FileFunction,Soldermask,Top*%
%TF.FilePolarity,Negative*%
%FSLAX46Y46*%
G04 Gerber Fmt 4.6, Leading zero omitted, Abs format (unit mm)*
G04 Created by KiCad (PCBNEW (6.0.0)) date 2023-02-02 14:21:30*
%MOMM*%
%LPD*%
G01*
G04 APERTURE LIST*
G04 Aperture macros list*
%AMRoundRect*
0 Rectangle with rounded corners*
0 $1 Rounding radius*
0 $2 $3 $4 $5 $6 $7 $8 $9 X,Y pos of 4 corners*
0 Add a 4 corners polygon primitive as box body*
4,1,4,$2,$3,$4,$5,$6,$7,$8,$9,$2,$3,0*
0 Add four circle primitives for the rounded corners*
1,1,$1+$1,$2,$3*
1,1,$1+$1,$4,$5*
1,1,$1+$1,$6,$7*
1,1,$1+$1,$8,$9*
0 Add four rect primitives between the rounded corners*
20,1,$1+$1,$2,$3,$4,$5,0*
20,1,$1+$1,$4,$5,$6,$7,0*
20,1,$1+$1,$6,$7,$8,$9,0*
20,1,$1+$1,$8,$9,$2,$3,0*%
%AMFreePoly0*
4,1,22,0.500000,-0.750000,0.000000,-0.750000,0.000000,-0.745033,-0.079941,-0.743568,-0.215256,-0.701293,-0.333266,-0.622738,-0.424486,-0.514219,-0.481581,-0.384460,-0.499164,-0.250000,-0.500000,-0.250000,-0.500000,0.250000,-0.499164,0.250000,-0.499963,0.256109,-0.478152,0.396186,-0.417904,0.524511,-0.324060,0.630769,-0.204165,0.706417,-0.067858,0.745374,0.000000,0.744959,0.000000,0.750000,
0.500000,0.750000,0.500000,-0.750000,0.500000,-0.750000,$1*%
%AMFreePoly1*
4,1,20,0.000000,0.744959,0.073905,0.744508,0.209726,0.703889,0.328688,0.626782,0.421226,0.519385,0.479903,0.390333,0.500000,0.250000,0.500000,-0.250000,0.499851,-0.262216,0.476331,-0.402017,0.414519,-0.529596,0.319384,-0.634700,0.198574,-0.708877,0.061801,-0.746166,0.000000,-0.745033,0.000000,-0.750000,-0.500000,-0.750000,-0.500000,0.750000,0.000000,0.750000,0.000000,0.744959,
0.000000,0.744959,$1*%
%AMFreePoly2*
4,1,22,0.550000,-0.750000,0.000000,-0.750000,0.000000,-0.745033,-0.079941,-0.743568,-0.215256,-0.701293,-0.333266,-0.622738,-0.424486,-0.514219,-0.481581,-0.384460,-0.499164,-0.250000,-0.500000,-0.250000,-0.500000,0.250000,-0.499164,0.250000,-0.499963,0.256109,-0.478152,0.396186,-0.417904,0.524511,-0.324060,0.630769,-0.204165,0.706417,-0.067858,0.745374,0.000000,0.744959,0.000000,0.750000,
0.550000,0.750000,0.550000,-0.750000,0.550000,-0.750000,$1*%
%AMFreePoly3*
4,1,20,0.000000,0.744959,0.073905,0.744508,0.209726,0.703889,0.328688,0.626782,0.421226,0.519385,0.479903,0.390333,0.500000,0.250000,0.500000,-0.250000,0.499851,-0.262216,0.476331,-0.402017,0.414519,-0.529596,0.319384,-0.634700,0.198574,-0.708877,0.061801,-0.746166,0.000000,-0.745033,0.000000,-0.750000,-0.550000,-0.750000,-0.550000,0.750000,0.000000,0.750000,0.000000,0.744959,
0.000000,0.744959,$1*%
G04 Aperture macros list end*
%ADD10RoundRect,0.250000X0.350000X0.450000X-0.350000X0.450000X-0.350000X-0.450000X0.350000X-0.450000X0*%
%ADD11RoundRect,0.250000X-0.350000X-0.450000X0.350000X-0.450000X0.350000X0.450000X-0.350000X0.450000X0*%
%ADD12RoundRect,0.150000X0.587500X0.150000X-0.587500X0.150000X-0.587500X-0.150000X0.587500X-0.150000X0*%
%ADD13R,1.300000X1.300000*%
%ADD14C,1.300000*%
%ADD15RoundRect,0.250000X-0.337500X-0.475000X0.337500X-0.475000X0.337500X0.475000X-0.337500X0.475000X0*%
%ADD16C,0.800000*%
%ADD17C,6.400000*%
%ADD18RoundRect,0.150000X-0.150000X0.587500X-0.150000X-0.587500X0.150000X-0.587500X0.150000X0.587500X0*%
%ADD19R,3.413760X3.413760*%
%ADD20C,3.413760*%
%ADD21O,3.000000X2.000000*%
%ADD22FreePoly0,270.000000*%
%ADD23FreePoly1,270.000000*%
%ADD24FreePoly2,90.000000*%
%ADD25R,1.500000X1.000000*%
%ADD26FreePoly3,90.000000*%
%ADD27FreePoly2,180.000000*%
%ADD28R,1.000000X1.500000*%
%ADD29FreePoly3,180.000000*%
%ADD30R,1.800000X1.800000*%
%ADD31C,1.800000*%
%ADD32RoundRect,0.250000X0.325000X0.450000X-0.325000X0.450000X-0.325000X-0.450000X0.325000X-0.450000X0*%
%ADD33RoundRect,0.250000X0.337500X0.475000X-0.337500X0.475000X-0.337500X-0.475000X0.337500X-0.475000X0*%
%ADD34RoundRect,0.250000X-0.620000X-0.845000X0.620000X-0.845000X0.620000X0.845000X-0.620000X0.845000X0*%
%ADD35O,1.740000X2.190000*%
%ADD36R,1.700000X1.700000*%
%ADD37O,1.700000X1.700000*%
%ADD38R,2.794000X2.794000*%
%ADD39C,2.794000*%
%ADD40RoundRect,0.250000X-0.845000X0.620000X-0.845000X-0.620000X0.845000X-0.620000X0.845000X0.620000X0*%
%ADD41O,2.190000X1.740000*%
%ADD42R,3.960000X1.980000*%
%ADD43O,3.960000X1.980000*%
%ADD44R,1.980000X3.960000*%
%ADD45O,1.980000X3.960000*%
%ADD46R,1.998980X1.998980*%
%ADD47C,1.998980*%
%ADD48R,2.200000X2.200000*%
%ADD49O,2.200000X2.200000*%
%ADD50C,2.600000*%
%ADD51R,3.000000X3.000000*%
%ADD52C,3.000000*%
G04 APERTURE END LIST*
D10*
%TO.C,R10*%
X159480000Y-55245000D03*
X157480000Y-55245000D03*
%TD*%
D11*
%TO.C,R13*%
X137430000Y-47355000D03*
X139430000Y-47355000D03*
%TD*%
D10*
%TO.C,R6*%
X149860000Y-52070000D03*
X147860000Y-52070000D03*
%TD*%
D12*
%TO.C,Q2*%
X162481500Y-63180000D03*
D13*
X160020000Y-63627000D03*
D14*
X158750000Y-62357000D03*
D12*
X162481500Y-61280000D03*
X160606500Y-62230000D03*
D14*
X160020000Y-61087000D03*
%TD*%
D15*
%TO.C,C3*%
X161925000Y-52070000D03*
X164000000Y-52070000D03*
%TD*%
D16*
%TO.C,REF\u002A\u002A*%
X212230000Y-55880000D03*
X212932944Y-54182944D03*
X214630000Y-53480000D03*
X212932944Y-57577056D03*
D17*
X214630000Y-55880000D03*
D16*
X217030000Y-55880000D03*
X214630000Y-58280000D03*
X216327056Y-54182944D03*
X216327056Y-57577056D03*
%TD*%
D15*
%TO.C,C1*%
X147955000Y-55245000D03*
X150030000Y-55245000D03*
%TD*%
D16*
%TO.C,REF\u002A\u002A*%
X216327056Y-88057056D03*
X212932944Y-88057056D03*
X214630000Y-88760000D03*
X212932944Y-84662944D03*
X217030000Y-86360000D03*
X214630000Y-83960000D03*
X216327056Y-84662944D03*
D17*
X214630000Y-86360000D03*
D16*
X212230000Y-86360000D03*
%TD*%
D18*
%TO.C,Q1*%
X149413000Y-59768500D03*
D13*
X149860000Y-62230000D03*
D18*
X147513000Y-59768500D03*
D14*
X148590000Y-63500000D03*
D18*
X148463000Y-61643500D03*
D14*
X147320000Y-62230000D03*
%TD*%
D19*
%TO.C,SW1*%
X138430000Y-60960000D03*
D20*
X138430000Y-57150000D03*
X138430000Y-53340000D03*
D21*
X140970000Y-40640000D03*
X135890000Y-40640000D03*
%TD*%
D10*
%TO.C,R7*%
X144780000Y-58420000D03*
X142780000Y-58420000D03*
%TD*%
D22*
%TO.C,JP2*%
X127635000Y-47625000D03*
D23*
X127635000Y-48925000D03*
%TD*%
D15*
%TO.C,C5*%
X157480000Y-52070000D03*
X159555000Y-52070000D03*
%TD*%
D10*
%TO.C,R9*%
X144780000Y-55245000D03*
X142780000Y-55245000D03*
%TD*%
D24*
%TO.C,JP3*%
X134620000Y-54610000D03*
D25*
X134620000Y-53310000D03*
D26*
X134620000Y-52010000D03*
%TD*%
D11*
%TO.C,R12*%
X157083912Y-58291234D03*
X159083912Y-58291234D03*
%TD*%
D16*
%TO.C,REF\u002A\u002A*%
X125590000Y-55880000D03*
X123190000Y-53480000D03*
X121492944Y-57577056D03*
X120790000Y-55880000D03*
X124887056Y-54182944D03*
X124887056Y-57577056D03*
D17*
X123190000Y-55880000D03*
D16*
X123190000Y-58280000D03*
X121492944Y-54182944D03*
%TD*%
%TO.C,REF\u002A\u002A*%
X115142944Y-84662944D03*
X119240000Y-86360000D03*
X115142944Y-88057056D03*
X114440000Y-86360000D03*
X118537056Y-84662944D03*
D17*
X116840000Y-86360000D03*
D16*
X118537056Y-88057056D03*
X116840000Y-88760000D03*
X116840000Y-83960000D03*
%TD*%
D27*
%TO.C,JP1*%
X130840000Y-71755000D03*
D28*
X129540000Y-71755000D03*
D29*
X128240000Y-71755000D03*
%TD*%
D10*
%TO.C,R11*%
X154670000Y-55880000D03*
X152670000Y-55880000D03*
%TD*%
D11*
%TO.C,R2*%
X153035000Y-64770000D03*
X155035000Y-64770000D03*
%TD*%
D30*
%TO.C,D2*%
X129540000Y-40640000D03*
D31*
X132080000Y-40640000D03*
%TD*%
D32*
%TO.C,D3*%
X139455000Y-42935000D03*
X137405000Y-42935000D03*
%TD*%
D33*
%TO.C,C2*%
X154940000Y-52070000D03*
X152865000Y-52070000D03*
%TD*%
D10*
%TO.C,R8*%
X144780000Y-61595000D03*
X142780000Y-61595000D03*
%TD*%
%TO.C,R1*%
X154940000Y-61595000D03*
X152940000Y-61595000D03*
%TD*%
D33*
%TO.C,C6*%
X145182500Y-52070000D03*
X143107500Y-52070000D03*
%TD*%
D11*
%TO.C,R3*%
X160655000Y-42545000D03*
X162655000Y-42545000D03*
%TD*%
D34*
%TO.C,J5*%
X165100000Y-86360000D03*
D35*
X167640000Y-86360000D03*
%TD*%
D36*
%TO.C,J8*%
X175895000Y-84455000D03*
D37*
X175895000Y-86995000D03*
%TD*%
D36*
%TO.C,J9*%
X172085000Y-84455000D03*
D37*
X172085000Y-86995000D03*
%TD*%
D38*
%TO.C,PT1*%
X166370000Y-42545000D03*
D39*
X171450000Y-42545000D03*
X176530000Y-42545000D03*
%TD*%
D40*
%TO.C,J3*%
X115570000Y-69850000D03*
D41*
X115570000Y-72390000D03*
%TD*%
D42*
%TO.C,J1*%
X120015000Y-73660000D03*
D43*
X120015000Y-68660000D03*
%TD*%
D44*
%TO.C,J6*%
X129460000Y-83820000D03*
D45*
X124460000Y-83820000D03*
%TD*%
D38*
%TO.C,PT3*%
X185420000Y-42545000D03*
D39*
X190500000Y-42545000D03*
X195580000Y-42545000D03*
%TD*%
D13*
%TO.C,Q3*%
X180340000Y-86082000D03*
D14*
X181610000Y-87352000D03*
X182880000Y-86082000D03*
%TD*%
D38*
%TO.C,PT4*%
X204470000Y-42545000D03*
D39*
X209550000Y-42545000D03*
X214630000Y-42545000D03*
%TD*%
D46*
%TO.C,U1*%
X149225000Y-67310000D03*
D47*
X149225000Y-69850000D03*
X149225000Y-72390000D03*
X149225000Y-74930000D03*
X141605000Y-74930000D03*
X141605000Y-72390000D03*
X141605000Y-69850000D03*
X141605000Y-67310000D03*
%TD*%
D44*
%TO.C,J2*%
X142160000Y-83820000D03*
D45*
X137160000Y-83820000D03*
%TD*%
D48*
%TO.C,D1*%
X138430000Y-66675000D03*
D49*
X128270000Y-66675000D03*
%TD*%
D50*
%TO.C,BT1*%
X190520000Y-77775000D03*
X205270000Y-55575000D03*
X177270000Y-55575000D03*
D51*
X166370000Y-73025000D03*
D52*
X166370000Y-60325000D03*
%TD*%
D38*
%TO.C,PT2*%
X147320000Y-42545000D03*
D39*
X152400000Y-42545000D03*
X157480000Y-42545000D03*
%TD*%
D52*
%TO.C,J7*%
X131165000Y-50800000D03*
X114935000Y-50800000D03*
X131165000Y-44450000D03*
X114935000Y-44450000D03*
X131165000Y-57150000D03*
X114935000Y-57150000D03*
%TD*%
M02*
